<svg width="44" height="34" viewBox="0 0 44 34" fill="none" xmlns="http://www.w3.org/2000/svg">
<path d="M7.15347 15.6234C6.23624 16.5611 6.23624 18.0871 7.15347 19.034C8.0707 19.9717 9.56344 19.9717 10.4897 19.034C16.8383 12.5438 27.1706 12.5438 33.5193 19.034C33.9779 19.5028 34.5804 19.7418 35.1829 19.7418C35.7854 19.7418 36.3879 19.5028 36.8465 19.034C37.7637 18.0963 37.7637 16.5703 36.8465 15.6234C28.6634 7.24866 15.3366 7.24866 7.15347 15.6234Z" fill="white"/>
<path d="M13.5201 22.1319C12.6029 23.0696 12.6029 24.5956 13.5201 25.5425C14.4373 26.4802 15.9301 26.4802 16.8563 25.5425C19.6889 22.6375 24.311 22.6375 27.1436 25.5425C27.6023 26.0113 28.2048 26.2503 28.8072 26.2503C29.4097 26.2503 30.0122 26.0113 30.4708 25.5425C31.3881 24.6048 31.3881 23.0788 30.4708 22.1411C25.8038 17.3516 18.1962 17.3516 13.5201 22.1319Z" fill="white"/>
<path d="M22 34C23.7333 34 25.1384 32.5636 25.1384 30.7916C25.1384 29.0197 23.7333 27.5833 22 27.5833C20.2668 27.5833 18.8617 29.0197 18.8617 30.7916C18.8617 32.5636 20.2668 34 22 34Z" fill="white"/>
<path d="M43.3121 9.00446C31.559 -3.00149 12.441 -3.00149 0.687922 9.00446C-0.229307 9.94214 -0.229307 11.4682 0.687922 12.415C1.60515 13.3527 3.0979 13.3527 4.02412 12.415C13.9338 2.27525 30.0662 2.27525 39.9849 12.415C40.4435 12.8839 41.046 13.1229 41.6485 13.1229C42.251 13.1229 42.8535 12.8839 43.3121 12.415C44.2293 11.4774 44.2293 9.95133 43.3121 9.00446Z" fill="white"/>
</svg>
